<?xml version="1.0" encoding="UTF-8"?>
<svg version="1.1" xmlns="http://www.w3.org/2000/svg" width="2000" height="1789">
<path d="M0 0 C0.81871311 -0.00311998 1.63742621 -0.00623996 2.48094881 -0.00945449 C5.2053407 -0.01738657 7.92950686 -0.01112908 10.65390015 -0.00482178 C12.6162326 -0.00753423 14.57856404 -0.01109659 16.54089355 -0.01544189 C21.86460384 -0.02455109 27.18823648 -0.02102416 32.51194811 -0.01468372 C38.11398551 -0.00960045 43.71601651 -0.01432308 49.3180542 -0.01745605 C58.74837424 -0.02109554 68.17866299 -0.01630395 77.60897827 -0.0067749 C88.4353638 0.00404016 99.26167357 0.00063498 110.08805716 -0.01042771 C119.43044249 -0.01958471 128.77280534 -0.02074322 138.11519372 -0.01555037 C143.67276198 -0.01246742 149.23029503 -0.01191654 154.78786087 -0.01862335 C183.45356587 -0.04851375 212.10836404 -0.02524687 240.55770874 4.00396729 C242.38664673 4.25775146 242.38664673 4.25775146 244.25253296 4.5166626 C285.86975965 10.53605852 325.72744507 22.78885483 363.49520874 41.25396729 C364.39432983 41.69321533 365.29345093 42.13246338 366.21981812 42.58502197 C392.80695637 55.72276905 417.40064641 72.48847855 439.49520874 92.25396729 C440.2387561 92.91138916 440.98230347 93.56881104 441.74838257 94.24615479 C448.04726774 99.85120494 454.0940986 105.66973893 460.05770874 111.62896729 C460.93878296 112.49779541 461.81985718 113.36662354 462.72763062 114.26177979 C468.75633319 120.27713468 474.19884599 126.59023655 479.49520874 133.25396729 C480.50812472 134.48536733 481.52338193 135.71484939 482.54208374 136.94146729 C537.54809271 203.99745398 565.06956536 291.12544305 566.49520874 377.25396729 C566.51567261 378.14213135 566.53613647 379.03029541 566.55722046 379.94537354 C568.57756997 474.91849788 541.87259789 573.02375536 479.49520874 646.25396729 C478.51583888 647.41916111 477.53668584 648.5845372 476.55770874 649.75006104 C471.11663252 656.1954201 465.5811644 662.403597 459.49520874 668.25396729 C456.82567139 670.90567801 454.17745002 673.57640293 451.54989624 676.26959229 C444.86653894 683.09030757 438.00745113 689.34071625 430.49520874 695.25396729 C429.36434595 696.18388471 428.23554783 697.1163169 427.10848999 698.05084229 C417.67888843 705.82103758 407.80071005 712.69720701 397.49520874 719.25396729 C396.87210815 719.6518042 396.24900757 720.04964111 395.60702515 720.45953369 C383.99134971 727.81134802 371.75535603 734.0586448 359.49520874 740.25396729 C358.7451355 740.63440186 357.99506226 741.01483643 357.22225952 741.40679932 C317.16532914 761.53462613 272.8191413 772.15803824 228.49520874 777.25396729 C227.78151092 777.33679258 227.06781309 777.41961787 226.33248806 777.50495303 C220.36145185 778.15489871 214.4799077 778.40445042 208.47640991 778.40786743 C207.51937007 778.41224969 206.56233023 778.41663194 205.57628918 778.42114699 C202.39691645 778.43441014 199.21757133 778.44068526 196.03817749 778.44683838 C193.74753701 778.45474871 191.45689775 778.46301822 189.16625977 778.47161865 C181.67175466 778.49771346 174.17724429 778.51312565 166.68270874 778.52740479 C164.09688311 778.53276811 161.51105751 778.53814562 158.92523193 778.54353714 C148.17101969 778.56514022 137.41681059 778.58402842 126.6625824 778.59515953 C123.87990311 778.59808867 121.09722387 778.60105044 118.31454468 778.60406494 C117.62301894 778.60481099 116.9314932 778.60555704 116.21901214 778.6063257 C105.00690277 778.61899041 93.79495153 778.65223951 82.58291614 778.69386677 C71.04963623 778.73633357 59.51646198 778.75945191 47.98310184 778.76508009 C41.51618734 778.7687311 35.04954215 778.78072832 28.58270264 778.81318283 C22.502107 778.84326634 16.42194371 778.84957393 10.34128952 778.83779907 C8.11368574 778.83757842 5.88606182 778.84587622 3.65852737 778.86345291 C0.60983674 778.88619508 -2.43729225 778.87782568 -5.48599243 778.86196899 C-6.36052472 778.87585108 -7.23505701 778.88973317 -8.13609028 778.90403593 C-17.49367264 778.78468158 -25.01431785 774.43457144 -31.75479126 768.12896729 C-40.35608391 758.91329659 -41.95884391 748.06854816 -41.88231468 735.86938477 C-41.88885517 734.04325771 -41.88885517 734.04325771 -41.89552778 732.1802392 C-41.90456583 728.81226146 -41.9002449 725.44478896 -41.89019392 722.07684666 C-41.88256388 718.40855043 -41.89237144 714.74029309 -41.89992392 711.07200241 C-41.91074844 704.64654424 -41.91043679 698.22116171 -41.90278244 691.79570007 C-41.89143109 682.24079452 -41.89723824 672.68595274 -41.90640736 663.13104761 C-41.92220418 646.06563494 -41.92083557 629.00025596 -41.91217062 611.93484008 C-41.904625 597.00064417 -41.90265337 582.06646061 -41.90623856 567.13226318 C-41.90646771 566.14177753 -41.90669687 565.15129188 -41.90693297 564.13079152 C-41.90786698 560.11012279 -41.90882218 556.08945407 -41.90981226 552.06878535 C-41.91898998 514.349137 -41.91066772 476.62951012 -41.89452157 438.90986508 C-41.88028467 405.39564807 -41.88155855 371.88146525 -41.89590454 338.36724854 C-41.91196721 300.71674195 -41.91833911 263.06625432 -41.90906775 225.41574478 C-41.90810559 221.40238699 -41.90716707 217.38902919 -41.90623856 213.37567139 C-41.90600132 212.38747488 -41.90576409 211.39927837 -41.90551967 210.38113651 C-41.90210675 195.45605114 -41.90609902 180.53097947 -41.91367722 165.605896 C-41.92225067 148.63600891 -41.9201197 131.6661608 -41.90383498 114.69627857 C-41.89502091 105.19794868 -41.8944586 95.69970318 -41.90577351 86.20137547 C-41.91249732 79.85763962 -41.90832001 73.51397147 -41.8952592 67.17024566 C-41.88811974 63.5553281 -41.88568914 59.94057826 -41.89647715 56.32566595 C-41.90798483 52.42987124 -41.8962679 48.53434091 -41.88231468 44.6385498 C-41.88933818 43.51896708 -41.89636168 42.39938436 -41.90359801 41.24587488 C-41.81668869 29.13920945 -38.52907624 19.5318043 -30.31729126 10.56646729 C-21.98322983 2.6309914 -11.20734421 -0.06666905 0 0 Z M37.49520874 71.25396729 C37.49520874 281.79396729 37.49520874 492.33396729 37.49520874 709.25396729 C125.41193734 711.63066559 125.41193734 711.63066559 218.05770874 707.00396729 C219.15518433 706.8753833 220.25265991 706.74679932 221.38339233 706.61431885 C249.6826896 703.11579045 277.16113085 696.21328239 303.49520874 685.25396729 C304.32327026 684.91139893 305.15133179 684.56883057 306.00448608 684.21588135 C348.90229148 666.25321005 390.01385968 636.20669196 418.49520874 599.25396729 C419.47484462 598.02543811 420.45537787 596.79762417 421.43661499 595.57037354 C467.72893892 537.08393951 488.79893706 463.81607202 488.68270874 389.87896729 C488.68177216 389.09783569 488.68083557 388.3167041 488.67987061 387.51190186 C488.48870582 313.2872299 467.06744754 240.77265516 420.49520874 182.25396729 C419.73852905 181.28330322 418.98184937 180.31263916 418.20223999 179.31256104 C403.52272682 160.83234839 386.48278501 144.72340079 367.51766968 130.7456665 C365.66019415 129.37565498 363.81529214 127.99031113 361.97177124 126.60162354 C353.34720161 120.18793662 344.21423031 114.77863219 334.8296814 109.55474854 C333.34636716 108.72823753 331.86644298 107.89558977 330.39120483 107.05474854 C242.50399034 56.99214081 132.56076559 71.25396729 37.49520874 71.25396729 Z " fill="#FFFFFF" transform="translate(788.5047912597656,1010.7460327148438)"/>
<path d="M0 0 C1.3855561 -0.0029767 2.77110988 -0.00726817 4.15665833 -0.01274834 C7.97302118 -0.02402203 11.78915476 -0.01659747 15.6055116 -0.00617849 C19.76948365 0.00186966 23.93342263 -0.00752674 28.09739125 -0.01468903 C35.42635518 -0.02487896 42.75525225 -0.02386729 50.08421767 -0.0156384 C61.05595331 -0.00337497 72.02763457 -0.00838046 82.99937142 -0.01678632 C101.69683905 -0.03060115 120.39428221 -0.0301291 139.09175205 -0.02194369 C158.04562724 -0.0136965 176.99948632 -0.0119436 195.95336246 -0.01815569 C197.14949209 -0.01854321 198.34562171 -0.01893073 199.57799768 -0.01932999 C204.44946348 -0.02092976 209.32092925 -0.02257588 214.19239501 -0.02428082 C259.59191081 -0.04015882 304.99141806 -0.04123146 350.39093494 -0.03283846 C351.75049318 -0.03258755 353.11005142 -0.03233666 354.46960965 -0.03208578 C355.48030979 -0.03189923 355.48030979 -0.03189923 356.51142811 -0.03170891 C365.39688347 -0.03006939 374.28233884 -0.02845956 383.16779423 -0.02692902 C383.84697175 -0.02681154 384.52614928 -0.02669405 385.22590794 -0.02657301 C416.68649402 -0.02117151 448.14707866 -0.02245396 479.60766495 -0.02522039 C483.03881006 -0.02551978 486.46995518 -0.02580628 489.9011003 -0.02609421 C500.24275138 -0.02696597 510.58440245 -0.02785679 520.92605352 -0.02878701 C552.46291601 -0.03162073 583.99977852 -0.03342136 615.53664112 -0.03433192 C616.23886153 -0.03435252 616.94108193 -0.03437313 617.66458175 -0.03439436 C663.14867914 -0.03571077 708.63277493 -0.0324073 754.11687183 -0.02578318 C755.20620431 -0.02562515 755.20620431 -0.02562515 756.31754349 -0.02546392 C780.64310295 -0.02193478 804.96866238 -0.01816662 829.29422179 -0.01437403 C902.8577362 -0.00291255 976.42124486 0.00336822 1107.79540642 -0.01472003 C1132.11479095 -0.0185096 1156.43417549 -0.02225511 1180.75356007 -0.02578318 C1181.47957662 -0.02588892 1182.20559318 -0.02599465 1182.95361023 -0.02610359 C1228.41367063 -0.03271856 1273.87372991 -0.03566586 1319.33379078 -0.03433192 C1320.03577934 -0.03431165 1320.73776789 -0.03429138 1321.46102883 -0.0342705 C1352.98032114 -0.03335037 1384.49961334 -0.03143554 1416.01890553 -0.02860041 C1426.35602295 -0.02767174 1436.69314037 -0.02678874 1447.03025779 -0.02592126 C1450.45942475 -0.02563329 1453.88859171 -0.02534122 1457.31775866 -0.02503969 C1488.77938572 -0.02228162 1520.24101085 -0.02148684 1551.70263767 -0.02692902 C1552.38138543 -0.02704594 1553.06013319 -0.02716285 1553.75944906 -0.02728331 C1562.6399068 -0.02881874 1571.52036453 -0.03044666 1580.40082225 -0.03208578 C1581.07409209 -0.03221002 1581.74736194 -0.03233426 1582.4410339 -0.03246226 C1583.79936029 -0.03271294 1585.15768668 -0.03296384 1586.51601307 -0.03321495 C1632.46015968 -0.04168649 1678.40429563 -0.03907598 1724.34844089 -0.02299623 C1729.20465039 -0.0213391 1734.0608599 -0.01972899 1738.91706944 -0.01815569 C1740.10890201 -0.01776507 1741.30073458 -0.01737445 1742.52868329 -0.016972 C1761.43529411 -0.01104427 1780.34188887 -0.01518574 1799.24849825 -0.02346271 C1817.81871329 -0.03137951 1836.3889011 -0.02864779 1854.95911268 -0.01442045 C1865.85948893 -0.00638876 1876.75979068 -0.0066264 1887.66016344 -0.01886524 C1894.88854468 -0.02616695 1902.11686761 -0.02269794 1909.34524175 -0.01026468 C1913.44984287 -0.00351097 1917.55429505 -0.00150833 1921.65888979 -0.01271423 C1925.38168564 -0.02279052 1929.10420288 -0.01911456 1932.82698095 -0.00439011 C1934.79342698 -0.00016544 1936.75988783 -0.0106501 1938.72630716 -0.02173402 C1946.64959399 0.02809414 1952.33967558 0.86287499 1959.18521595 5.06354749 C1964.89305989 10.92994265 1966.04169664 17.15049729 1965.96646595 25.09870374 C1965.97220631 26.45517263 1965.97220631 26.45517263 1965.97806263 27.83904493 C1965.98076923 29.73916722 1965.97349635 31.63932758 1965.95670033 33.53937757 C1965.93524704 36.43435184 1965.95655711 39.32685191 1965.98209095 42.22175062 C1965.97944794 44.07657375 1965.97432351 45.93139536 1965.96646595 47.78620374 C1965.97456287 48.64367704 1965.9826598 49.50115034 1965.99100208 50.38460767 C1965.88770112 57.05787487 1964.24156926 61.34639296 1959.6188097 66.33698499 C1958.75449329 67.03694593 1958.75449329 67.03694593 1957.87271595 67.75104749 C1957.29392689 68.23315687 1956.71513783 68.71526624 1956.1188097 69.21198499 C1952.78940642 71.5139854 1949.80098891 71.50131294 1945.88685865 71.50213666 C1944.13969832 71.50614123 1944.13969832 71.50614123 1942.35724182 71.51022669 C1940.4234793 71.50699499 1940.4234793 71.50699499 1938.45065087 71.50369799 C1937.067093 71.50494 1935.68353547 71.50662025 1934.29997862 71.50870035 C1930.46589483 71.51317518 1926.63183502 71.51136266 1922.79775056 71.50859857 C1918.623151 71.50668446 1914.44855625 71.51055286 1910.273958 71.51369536 C1902.91848472 71.51842168 1895.56301818 71.51939029 1888.20754363 71.51796702 C1877.19605951 71.51585195 1866.18458239 71.51945061 1855.17309934 71.52418179 C1836.40991219 71.53206865 1817.64672693 71.53514451 1798.88353825 71.53562772 C1779.85822869 71.5361295 1760.83292127 71.53877012 1741.80761242 71.54403532 C1740.00784227 71.54453052 1740.00784227 71.54453052 1738.17171313 71.54503572 C1733.2852451 71.54638566 1728.39877708 71.54774832 1723.51230906 71.54912783 C1669.73649703 71.56428241 1615.96068546 71.57107167 1562.18487177 71.57554979 C1561.50451759 71.57560648 1560.8241634 71.57566317 1560.12319242 71.57572158 C1556.68186583 71.5760081 1553.24053924 71.57629313 1549.79921266 71.5765757 C1520.97792691 71.57894997 1492.15664139 71.58265946 1463.33535583 71.58661279 C1449.53694279 71.58850533 1435.73852975 71.59033383 1421.9401167 71.59214699 C1421.25388167 71.59223718 1420.56764663 71.59232737 1419.86061659 71.59242029 C1386.83222388 71.59675664 1353.80383112 71.60068495 1320.77543831 71.60414732 C1320.0708688 71.60422119 1319.36629929 71.60429506 1318.64037918 71.60437117 C1273.7341401 71.60906661 1228.8279011 71.61188935 1183.92166181 71.61353409 C1180.23948779 71.61366967 1176.55731376 71.6138087 1172.87513974 71.61394764 C1166.9716433 71.61417011 1161.06814685 71.61439148 1155.16465041 71.61461151 C1154.43310032 71.61463879 1153.70155023 71.61466606 1152.94783196 71.61469415 C1151.46930615 71.61474927 1149.99078034 71.61480438 1148.51225453 71.61485948 C1138.14067156 71.6152461 1127.76908859 71.61563405 1117.39750561 71.61602862 C1113.68631716 71.61616972 1109.97512872 71.6163098 1106.26394027 71.61644751 C1036.16341777 71.61905205 966.06289748 71.62438438 895.96237659 71.64032972 C894.85526684 71.64058141 894.85526684 71.64058141 893.72579123 71.64083818 C870.66498418 71.64608892 847.60417721 71.65166326 824.54337025 71.65729749 C800.88177302 71.66307834 777.22017579 71.66880882 753.55857849 71.67425382 C752.46578812 71.67450553 752.46578812 71.67450553 751.35092117 71.67476233 C705.73573861 71.68525285 660.12055667 71.69211637 614.505373 71.69512022 C613.80101495 71.69516703 613.09665689 71.69521384 612.37095466 71.69526207 C581.4394048 71.69731257 550.50785495 71.69855678 519.57630503 71.69890813 C507.13301263 71.6990514 494.68972024 71.69929006 482.24642785 71.69957218 C480.18322321 71.69961771 478.12001857 71.69965937 476.05681393 71.69970029 C444.48495422 71.70034666 412.91309705 71.70330979 381.34123874 71.71316087 C380.65999997 71.71337324 379.9787612 71.71358561 379.27687884 71.71380442 C368.31772462 71.71723337 357.35857046 71.72084628 346.39941631 71.72448083 C301.51909292 71.73935786 256.63877721 71.74495238 211.75845115 71.73673824 C205.657975 71.73562277 199.55749884 71.73461214 193.45702267 71.73366392 C192.26110175 71.73347395 191.06518084 71.73328398 189.8330199 71.73308826 C170.85578252 71.73034889 151.8785629 71.73771485 132.90132939 71.74923728 C114.26499768 71.76034434 95.6286912 71.76084333 76.99235913 71.7498671 C66.0508246 71.74374579 55.10936597 71.74593111 44.1678385 71.76011907 C36.91470469 71.76871291 29.66162713 71.76656226 22.40849688 71.75542036 C18.28816528 71.74939905 14.1679832 71.748168 10.04766114 71.76010522 C6.3129691 71.77083888 2.57855297 71.76789504 -1.15612568 71.75381255 C-3.13376566 71.74993181 -5.11141764 71.76081533 -7.08902841 71.77224364 C-14.18259949 71.72888701 -19.24044569 71.46961565 -24.6468153 66.43854749 C-25.21786999 65.75792249 -25.78892467 65.07729749 -26.37728405 64.37604749 C-26.96122936 63.69542249 -27.54517467 63.01479749 -28.1468153 62.31354749 C-30.29942402 59.37224192 -30.69308359 56.84593929 -30.741786 53.3069557 C-30.75462124 52.49213224 -30.76745647 51.67730878 -30.78068066 50.83779371 C-30.78806759 49.95967527 -30.79545452 49.08155683 -30.8030653 48.17682874 C-30.81113705 47.26781309 -30.81920879 46.35879743 -30.82752514 45.42223585 C-30.8413568 43.49645868 -30.85208306 41.57065709 -30.85995007 39.64484632 C-30.87711795 36.71687498 -30.9210067 33.7900463 -30.96517467 30.86237562 C-30.97530614 28.98803493 -30.98382082 27.11368467 -30.9905653 25.23932874 C-31.00807339 24.37133146 -31.02558147 23.50333417 -31.04362011 22.60903394 C-31.0188202 15.56820833 -29.2834589 10.17024109 -24.31478405 5.06354749 C-16.27558864 0.13040485 -9.24205866 -0.05209377 0 0 Z " fill="#FFFFFF" transform="translate(32.56478404998779,756.6239525079727)"/>
<path d="M0 0 C3.62551505 -0.00071979 7.25102652 -0.00287148 10.87654066 -0.00549722 C23.63243928 -0.0147124 36.38832757 -0.0188379 49.14422941 -0.01804566 C59.56644568 -0.01751505 69.9886243 -0.02452162 80.41083097 -0.03855348 C192.70604563 -0.18667151 192.70604563 -0.18667151 238.2330966 2.16725707 C229.90737497 28.04072632 207.04214771 51.67966234 186.2330966 68.16725707 C184.80223722 69.34094848 184.80223722 69.34094848 183.3424716 70.53835082 C173.9095499 78.09678167 163.70015011 84.15463983 153.2330966 90.16725707 C152.59710539 90.54092406 151.96111418 90.91459105 151.30585051 91.29958129 C84.75469136 130.29688044 -2.26165821 137.74446944 -77.76714754 139.66994262 C-80.04131251 139.72877172 -82.31520763 139.79443711 -84.58916903 139.86061645 C-109.11624857 140.53400371 -133.62393315 140.1940721 -158.1419034 139.35475707 C-159.46027193 139.31024413 -160.77864046 139.26573119 -162.13695955 139.21986938 C-204.52593749 137.77512406 -246.68294979 134.44935708 -288.9075284 130.56960082 C-289.57373516 130.50864352 -290.23994192 130.44768622 -290.92633677 130.38488173 C-297.77732662 129.75647985 -304.61678279 129.0865342 -311.44871187 128.27713561 C-322.38825418 126.99878149 -333.29212773 126.81690182 -344.29836702 126.70311522 C-350.26736096 126.6402747 -356.23586262 126.54848358 -362.2044034 126.45241332 C-363.42590593 126.43280044 -364.64740847 126.41318755 -365.90592623 126.39298034 C-376.96781584 126.19742556 -388.01105526 125.74033855 -399.06280184 125.24428344 C-419.26684847 124.3469713 -439.44837316 123.94732949 -459.66984606 123.92093825 C-461.6568665 123.91734308 -463.64387817 123.90964467 -465.63088655 123.90184569 C-489.95841091 123.82452441 -514.25048035 124.75944119 -538.3294034 128.41725707 C-539.05050295 128.52396728 -539.7716025 128.63067748 -540.51455355 128.74062133 C-584.97564615 135.34605546 -626.65775189 148.91151124 -666.7669034 169.16725707 C-667.63669832 169.60424926 -668.50649324 170.04124145 -669.40264559 170.49147582 C-703.42917983 187.68327314 -735.0128235 209.98416569 -763.92705965 234.75710082 C-765.73486532 236.29137331 -767.57627551 237.78750159 -769.45830965 239.22975707 C-784.87561981 252.16881941 -788.82126916 283.07421867 -791.66143465 301.80006957 C-791.83147005 302.91387496 -792.00150545 304.02768035 -792.17669344 305.17523742 C-794.53876286 320.96108751 -796.37545887 336.81972663 -798.2669034 352.66750121 C-803.47866204 396.25397178 -803.47866204 396.25397178 -808.8919034 411.79225707 C-809.18266756 412.64287719 -809.47343172 413.4934973 -809.77300692 414.36989379 C-814.63995459 427.99936309 -821.61865831 440.9375764 -830.7669034 452.16725707 C-831.1911661 452.69013305 -831.61542879 453.21300902 -832.05254793 453.75172973 C-840.73384735 464.39441687 -849.9074869 473.69966142 -860.7669034 482.16725707 C-861.30669832 482.58878051 -861.84649324 483.01030395 -862.40264559 483.44460082 C-877.06326192 494.79584196 -892.99537619 504.28130719 -909.7669034 512.16725707 C-908.51779613 504.99980394 -907.08780289 497.90303601 -905.4465909 490.81569457 C-904.99274643 488.83173517 -904.53931311 486.84768168 -904.08623934 484.86354613 C-903.85062288 483.83394774 -903.61500643 482.80434936 -903.37225008 481.74355102 C-890.86250752 426.91019004 -880.69018129 371.74196459 -876.96612215 315.55397582 C-876.90097414 314.57236983 -876.83582613 313.59076385 -876.76870394 312.57941222 C-876.45726007 307.82765389 -876.161459 303.07568561 -875.89287996 298.3213098 C-874.43515735 273.56086835 -870.13493073 254.76972529 -851.7669034 237.16725707 C-851.19600985 236.61408813 -850.62511629 236.06091918 -850.03692293 235.49098754 C-843.45188166 229.14262179 -836.66330887 223.11197761 -829.52080965 217.39381957 C-827.05527469 215.40040832 -824.64143818 213.35756873 -822.23882723 211.28908324 C-787.41553775 181.37438158 -747.68211331 157.69772473 -706.7669034 137.16725707 C-706.17433748 136.86861754 -705.58177156 136.56997802 -704.9712491 136.26228881 C-671.6539472 119.47428304 -637.26222799 105.4610188 -602.11278963 92.99934936 C-599.7948062 92.17715427 -597.47830788 91.35087677 -595.16192293 90.52419066 C-535.67595657 69.35224104 -474.36241052 53.20053385 -412.69244051 39.80403686 C-409.76112707 39.16599978 -406.83133354 38.52131479 -403.90166903 37.87575316 C-297.27792446 14.47870882 -187.07948835 6.23175519 -78.23680544 1.3251617 C-76.11426402 1.22857133 -73.99182226 1.12971551 -71.86957216 1.02692294 C-47.92422613 -0.11709743 -23.96649331 0.00268449 0 0 Z " fill="#FFFFFF" transform="translate(1335.7669034004211,-0.16725707054138184)"/>
<path d="M0 0 C7.89921387 5.37207074 13.05804089 12.39425667 18 20.4375 C18.90286743 21.88177368 18.90286743 21.88177368 19.82397461 23.35522461 C21.68368246 26.3352794 23.53015483 29.32322713 25.375 32.3125 C26.48769073 34.10323164 27.60095071 35.89360973 28.71484375 37.68359375 C31.41074697 42.02233841 34.09490459 46.36821347 36.77490234 50.71679688 C39.42893602 55.02221129 42.08888004 59.32396284 44.75 63.625 C45.28334961 64.48722168 45.81669922 65.34944336 46.36621094 66.23779297 C50.45284584 72.83806168 54.56738782 79.42059189 58.6875 86 C64.63812142 95.50393101 70.52650507 105.04479155 76.39379883 114.6003418 C81.46209306 122.84746427 86.583198 131.06030885 91.72387695 139.26245117 C96.37576575 146.69288241 100.97677706 154.15358448 105.5625 161.625 C110.1207377 169.05065683 114.7039587 176.45724569 119.375 183.8125 C124.74797853 192.27305964 129.99951084 200.80588078 135.2421875 209.34765625 C139.75250686 216.69083275 144.29844653 224.01044063 148.875 231.3125 C154.0818803 239.62143904 159.24418086 247.95638181 164.375 256.3125 C170.18709212 265.77750435 176.04587803 275.21176576 181.94140625 284.625 C186.47496382 291.86530185 190.97802233 299.12388857 195.46826172 306.39111328 C199.51876796 312.94162794 203.59951575 319.47282349 207.6875 326 C213.63678642 335.50164958 219.52422556 345.03999868 225.3894043 354.59375 C230.49461241 362.90204347 235.65353258 371.17544974 240.8425293 379.43164062 C244.06290715 384.56777661 247.23821881 389.7263028 250.35546875 394.92578125 C250.9985498 395.99610596 251.64163086 397.06643066 252.30419922 398.16918945 C253.53753366 400.22767804 254.76467061 402.28989554 255.98486328 404.35620117 C256.53255371 405.26990479 257.08024414 406.1836084 257.64453125 407.125 C258.12510986 407.93582031 258.60568848 408.74664063 259.10083008 409.58203125 C259.73154419 410.43861328 259.73154419 410.43861328 260.375 411.3125 C261.035 411.3125 261.695 411.3125 262.375 411.3125 C263.60280805 409.71729243 263.60280805 409.71729243 264.7734375 407.60546875 C265.24620117 406.80157715 265.71896484 405.99768555 266.20605469 405.16943359 C266.71555664 404.28852051 267.22505859 403.40760742 267.75 402.5 C268.84448487 400.64082537 269.94088434 398.78277671 271.0390625 396.92578125 C271.87679199 395.50773193 271.87679199 395.50773193 272.73144531 394.06103516 C275.12538668 390.05761985 277.61645658 386.11977661 280.125 382.1875 C284.94923516 374.60736227 289.67697046 366.97146321 294.375 359.3125 C298.99536697 351.78240969 303.63790134 344.26975175 308.375 336.8125 C313.74580392 328.35561801 318.99487304 319.82629129 324.2355957 311.28833008 C329.4292552 302.83311911 334.67361294 294.41085399 339.94067383 286.0012207 C343.93820627 279.61686581 347.91560901 273.2205735 351.875 266.8125 C356.45437931 259.40100686 361.06318021 252.00852931 365.6875 244.625 C370.95565262 236.21119427 376.18030202 227.7718426 381.375 219.3125 C389.58464719 205.94548486 397.89900974 192.64543864 406.22949219 179.35351562 C414.00310747 166.94680928 421.72625999 154.51123055 429.38769531 142.03491211 C434.53197878 133.66449954 439.72647797 125.32653829 444.94140625 117 C448.93873646 110.61607812 452.9158584 104.22016988 456.875 97.8125 C461.45437931 90.40100686 466.06318021 83.00852931 470.6875 75.625 C475.95565964 67.21118306 481.17910922 58.77111754 486.375 50.3125 C487.70954395 48.14577699 489.04417922 45.97911023 490.37890625 43.8125 C493.06778099 39.4461199 495.73925695 35.06964721 498.40234375 30.6875 C499.7053568 28.56227165 501.0087284 26.43726308 502.3125 24.3125 C503.1797168 22.87197266 503.1797168 22.87197266 504.06445312 21.40234375 C511.667119 9.07510216 520.02827282 -0.69304667 534.44921875 -4.18359375 C545.13824943 -6.02456165 554.84371468 -4.6865304 564.125 1 C571.77397437 6.47704338 576.71149634 14.59238589 578.96484375 23.6953125 C582.03482042 43.28468742 572.60843205 57.07372555 562.36328125 72.7265625 C559.33996449 77.35022557 556.38160066 82.013103 553.4375 86.6875 C552.93911621 87.47833984 552.44073242 88.26917969 551.92724609 89.08398438 C550.91493385 90.69091195 549.90289004 92.29800865 548.89111328 93.90527344 C546.38973285 97.87686941 543.88210541 101.84451649 541.375 105.8125 C538.39713657 110.52652403 535.41984162 115.24090241 532.4453125 119.95703125 C526.51405179 129.35871046 520.55864471 138.74464608 514.58642578 148.12036133 C510.83639075 154.00966077 507.09952421 159.90703782 503.375 165.8125 C499.05848424 172.6566012 494.72221532 179.48785853 490.375 186.3125 C484.01600507 196.296383 477.68919122 206.30023828 471.375 216.3125 C464.47024412 227.26120594 457.54450614 238.19606411 450.59082031 249.11376953 C444.82804413 258.1647928 439.09862451 267.23668577 433.375 276.3125 C426.47024412 287.26120594 419.54450614 298.19606411 412.59082031 309.11376953 C406.82804413 318.1647928 401.09862451 327.23668577 395.375 336.3125 C388.47024412 347.26120594 381.54450614 358.19606411 374.59082031 369.11376953 C368.82804413 378.1647928 363.09862451 387.23668577 357.375 396.3125 C350.47024412 407.26120594 343.54450614 418.19606411 336.59082031 429.11376953 C331.32795648 437.37962985 326.09231796 445.66247246 320.86474609 453.95068359 C318.26515866 458.07202231 315.66390601 462.19230904 313.0625 466.3125 C312.59505371 467.05330811 312.12760742 467.79411621 311.64599609 468.55737305 C311.18918457 469.28093994 310.73237305 470.00450684 310.26171875 470.75 C309.8317072 471.46051262 309.40169565 472.17102524 308.95865345 472.90306854 C307.375 475.3125 307.375 475.3125 305.5907774 477.29714203 C297.67407968 486.99105125 299.43744851 499.13334242 299.55200195 510.97851562 C299.55066121 513.49428144 299.54618439 516.01004723 299.53881836 518.52580261 C299.52959128 523.92902024 299.54134368 529.33153844 299.57195473 534.73466492 C299.61588692 542.55834319 299.61704972 550.38159152 299.60734489 558.20536619 C299.59235417 570.91710308 299.60552446 583.62863657 299.6394043 596.34033203 C299.64142143 597.0998141 299.64343857 597.85929616 299.64551684 598.64179283 C299.64960897 600.17885174 299.65370286 601.71591064 299.65779851 603.25296953 C299.65982534 604.0149736 299.66185218 604.77697766 299.66394043 605.56207275 C299.6659739 606.3247101 299.66800737 607.08734744 299.67010247 607.87309501 C299.6922458 616.34361022 299.70712971 624.81413332 299.71948242 633.28466797 C299.7205961 634.04321644 299.72170979 634.80176491 299.72285721 635.5832997 C299.7408371 648.25001718 299.74273352 660.9167038 299.73569459 673.58343077 C299.73233013 681.38369467 299.74479877 689.18364021 299.77809598 696.98383558 C299.80282103 702.96404635 299.8077943 708.94410297 299.8057785 714.92437172 C299.80843128 717.37086564 299.81796331 719.81736356 299.83498955 722.26379967 C299.85741395 725.61180799 299.8550396 728.95895305 299.84687805 732.30700684 C299.85941331 733.26743598 299.87194856 734.22786511 299.88486367 735.21739817 C299.79872609 746.21427349 295.99085547 755.38243438 288.375 763.3125 C279.50789209 771.37921409 272.41078653 773.8418456 260.5625 773.8125 C259.53318359 773.84085938 258.50386719 773.86921875 257.44335938 773.8984375 C246.73154937 773.92553885 239.14026273 769.78884776 231.41796875 762.55859375 C223.60839513 753.97254244 221.05936602 745.26559593 221.17727661 733.92414856 C221.179951 732.87887125 221.18262539 731.83359394 221.18538082 730.75664157 C221.19647404 727.2540793 221.22169576 723.7517569 221.24658203 720.24926758 C221.25692951 717.73737482 221.26622664 715.22547755 221.27455139 712.71357727 C221.29109679 708.00280628 221.31057277 703.29207993 221.33450441 698.58134129 C221.38133741 689.30957102 221.40087355 680.03791378 221.41036987 670.76603699 C221.41199276 669.30376888 221.41362458 667.84150079 221.4152652 666.3792327 C221.41852775 663.41865358 221.42167241 660.45807435 221.42477584 657.49749506 C221.43293161 649.88968374 221.44311494 642.28187699 221.45605469 634.67407227 C221.4573428 633.91087056 221.45863091 633.14766886 221.45995806 632.36133983 C221.48193166 620.02329201 221.54041782 607.68564956 221.61075713 595.34779481 C221.68208688 582.65399232 221.70712745 569.96065632 221.69175422 557.26666182 C221.68385582 549.45308302 221.71206079 541.64138774 221.78819518 533.82816818 C221.84301425 527.81939151 221.83385148 521.81236905 221.80210686 515.80335808 C221.79900651 513.35534522 221.81608968 510.9072015 221.85592461 508.4595108 C222.10131663 492.47160279 219.7874453 482.21308446 209.9604795 469.44428861 C207.19221931 465.72216824 204.80920775 461.75742332 202.375 457.8125 C201.37663587 456.22813466 200.37682748 454.64467766 199.375 453.0625 C189.375 437.22916667 179.375 421.39583333 169.375 405.5625 C168.8802417 404.77915283 168.3854834 403.99580566 167.87573242 403.1887207 C166.87321757 401.60136474 165.87077646 400.01396221 164.8684082 398.42651367 C162.40748037 394.52934605 159.94538288 390.63292899 157.48046875 386.73828125 C151.95846299 378.00979987 146.46668396 369.2632473 141 360.5 C134.95813015 350.81725893 128.85180011 341.17736553 122.71484375 331.5546875 C118.06189087 324.25767568 113.44620154 316.93722045 108.82958984 309.6171875 C107.38418211 307.32704836 105.93659316 305.03830343 104.48828125 302.75 C98.9632921 294.01784914 93.46916907 285.26723099 88 276.5 C81.95813015 266.81725893 75.85180011 257.17736553 69.71484375 247.5546875 C65.06648478 240.26488011 60.45499678 232.95186029 55.84277344 225.63916016 C53.35516643 221.69589755 50.86493586 217.75429232 48.375 213.8125 C47.37498776 212.2291744 46.37498775 210.64584107 45.375 209.0625 C44.88 208.27875 44.385 207.495 43.875 206.6875 C42.375 204.3125 40.875 201.9375 39.375 199.5625 C38.8802417 198.77915283 38.3854834 197.99580566 37.87573242 197.1887207 C36.87321757 195.60136474 35.87077646 194.01396221 34.8684082 192.42651367 C32.40748037 188.52934605 29.94538288 184.63292899 27.48046875 180.73828125 C21.95846299 172.00979987 16.46668396 163.2632473 11 154.5 C4.95813015 144.81725893 -1.14819989 135.17736553 -7.28515625 125.5546875 C-11.93351522 118.26488011 -16.54500322 110.95186029 -21.15722656 103.63916016 C-23.1441509 100.4895612 -25.13279756 97.34105158 -27.12158203 94.19262695 C-28.12010107 92.61182765 -29.11847459 91.03093641 -30.11669922 89.44995117 C-32.66400666 85.4156728 -35.21320791 81.38261031 -37.765625 77.3515625 C-40.27545487 73.3876839 -42.77629322 69.41822336 -45.27490234 65.44726562 C-46.52314203 63.47355716 -47.78460551 61.50910491 -49.05078125 59.546875 C-56.22844325 48.26206819 -58.89510566 39.89834926 -57.625 26.3125 C-55.32376158 16.01543317 -49.81532537 7.01126663 -41.234375 0.8203125 C-28.98112135 -6.26016042 -12.25002245 -7.74664152 0 0 Z " fill="#FFFFFF" transform="translate(64.625,1015.6875)"/>
<path d="M0 0 C2.32249383 -0.00417509 4.64498561 -0.00965357 6.96747363 -0.01631981 C13.3366496 -0.03076998 19.70569612 -0.02653094 26.07487917 -0.019153 C32.24249532 -0.0134428 38.41009314 -0.02473419 44.57770108 -0.03406062 C57.96801272 -0.05370992 71.35828562 -0.05607827 84.74860824 -0.05086542 C96.46805759 -0.04630538 108.18749161 -0.04691099 119.90694046 -0.05270576 C121.4799552 -0.05346264 123.05296994 -0.05421862 124.62598468 -0.05497371 C126.99647845 -0.05611892 129.36697222 -0.0572688 131.73746598 -0.05843295 C153.77136611 -0.06913539 175.80526114 -0.07386583 197.83916283 -0.06596279 C199.08460729 -0.06551703 199.08460729 -0.06551703 200.35521225 -0.06506227 C207.09747712 -0.06261342 213.83974193 -0.06000179 220.58200674 -0.05737813 C246.87969745 -0.04727615 273.1773243 -0.05563121 299.4750061 -0.07887268 C329.03324331 -0.10495362 358.59144208 -0.11779101 388.14969122 -0.11068493 C391.30228463 -0.10996889 394.45487804 -0.1092945 397.60747147 -0.10864449 C398.38369718 -0.10847468 399.1599229 -0.10830487 399.95967061 -0.10812991 C411.66894309 -0.10582846 423.37817984 -0.11379657 435.08744431 -0.12693596 C448.4062385 -0.14185497 461.72494904 -0.14267995 475.04374145 -0.12486505 C481.83823097 -0.11615062 488.63255121 -0.11423062 495.42703438 -0.1295166 C501.64973586 -0.14334284 507.87214052 -0.13862656 514.09482475 -0.11927737 C516.34302913 -0.11551079 518.59125717 -0.1184582 520.83944051 -0.12888902 C549.26490901 -0.25137055 549.26490901 -0.25137055 560.45352173 9.33299255 C569.03234831 18.43069977 571.07155366 28.95262201 570.77383423 41.07518005 C570.25133115 49.60062594 566.54678762 57.51172171 560.39102173 63.38768005 C551.2959679 70.84415131 541.38438335 72.85885318 529.84300232 72.7484436 C528.84130042 72.75100688 527.83959853 72.75357015 526.80754203 72.7562111 C523.4833931 72.76111448 520.1597082 72.74471314 516.83560181 72.72825623 C514.43992117 72.72740921 512.04423976 72.72788655 509.64855957 72.72958374 C503.83934704 72.73035326 498.03028409 72.71739859 492.22110567 72.69827076 C485.4562678 72.67674588 478.69145058 72.6723284 471.92658325 72.66890625 C459.86448637 72.66235493 447.80245067 72.64242977 435.74038696 72.61399841 C424.02945256 72.58642356 412.31853482 72.56520679 400.60757446 72.55247498 C399.8846245 72.55168681 399.16167453 72.55089863 398.41681699 72.55008658 C394.78966476 72.54617121 391.16251241 72.54238015 387.53535998 72.53865087 C357.48720439 72.5075961 327.43912024 72.45457204 297.39102173 72.38768005 C297.39195761 73.26538478 297.39195761 73.26538478 297.3929124 74.16082092 C297.46069433 137.86225957 297.52351649 201.56370232 297.56039429 265.26516724 C297.56094652 266.21663119 297.56149874 267.16809514 297.56206771 268.14839133 C297.57403918 288.82598582 297.58511993 309.50358069 297.59528305 330.18117614 C297.60027242 340.32138131 297.60545863 350.46158637 297.61074829 360.60179138 C297.61127133 361.61086669 297.61179436 362.619942 297.61233325 363.65959535 C297.62938035 396.36994574 297.65942686 429.0802685 297.69621061 461.79060215 C297.73394029 495.40313927 297.75856334 529.01566109 297.76668169 562.62821903 C297.76783432 567.37514398 297.76913687 572.12206887 297.7705307 576.86899376 C297.77093524 578.27039587 297.77093524 578.27039587 297.77134795 579.70010913 C297.77607585 594.74265894 297.79463088 609.78516149 297.81834986 624.82769202 C297.84189737 639.94845233 297.85089401 655.06916576 297.84502724 670.18994377 C297.84198365 679.17481849 297.85010719 688.15952168 297.8742119 697.14436544 C297.88921751 703.14746052 297.88967214 709.15044334 297.87834898 715.15354618 C297.87231351 718.57331829 297.87255352 721.99276614 297.89055446 725.4125034 C297.90659101 729.10089062 297.89796413 732.7884372 297.88321304 736.47681141 C297.8937211 737.53245178 297.90422915 738.58809215 297.91505563 739.67572162 C297.80585117 751.74775444 293.62446526 760.98076406 285.28555298 769.55174255 C275.24331174 779.05816714 265.47197953 779.18476306 252.21914673 778.8603363 C245.10155423 778.45371382 240.09634977 776.83363803 234.39102173 772.38768005 C233.26567017 771.51756287 233.26567017 771.51756287 232.11758423 770.62986755 C225.75936997 764.98074782 222.05377861 757.3759507 219.39102173 749.38768005 C219.30024534 747.81857858 219.26653287 746.24586582 219.26682323 744.67414075 C219.26345229 743.20839276 219.26345229 743.20839276 219.26001325 741.71303371 C219.26264027 740.63477288 219.26526728 739.55651206 219.2679739 738.44557667 C219.26682006 737.29908615 219.26566621 736.15259563 219.2644774 734.97136298 C219.26227638 731.76990743 219.26459263 728.56849071 219.26875554 725.36703824 C219.27218013 721.89140506 219.26982078 718.41577519 219.26817805 714.94014138 C219.26610065 708.84239387 219.26775431 702.7446561 219.27181625 696.64690971 C219.27783952 687.57971657 219.27815315 678.5125296 219.27727426 669.44533482 C219.27595883 654.19450472 219.27930758 638.94367895 219.28529167 623.69285011 C219.29120365 608.58717642 219.2950566 593.48150453 219.29614449 578.3758297 C219.29621323 577.43747915 219.29628196 576.49912859 219.29635279 575.53234318 C219.29669111 570.76715965 219.2969925 566.00197612 219.29727966 561.23679259 C219.29938147 527.46311257 219.30612271 493.68943491 219.31558228 459.91575623 C219.32476295 427.10000114 219.3318484 394.28424671 219.33609009 361.4684906 C219.33622161 360.45740933 219.33635314 359.44632805 219.33648865 358.40460795 C219.33780714 348.25114507 219.33908296 338.09768218 219.34032751 327.94421929 C219.34286389 307.25945385 219.34568515 286.57468847 219.34867859 265.8899231 C219.34881588 264.93881896 219.34895317 263.98771483 219.34909462 263.00778937 C219.35829916 199.46775195 219.37414481 135.92771584 219.39102173 72.38768005 C218.15580182 72.39136723 216.92058191 72.3950544 215.6479311 72.3988533 C186.28756368 72.48559472 156.92722551 72.55149705 127.5667616 72.59194137 C123.94836697 72.59694385 120.3299726 72.60212117 116.71157837 72.60740662 C115.63110026 72.60898048 115.63110026 72.60898048 114.52879431 72.61058614 C102.88485382 72.62796351 91.24099279 72.65948638 79.59709934 72.69629124 C67.63812029 72.73377513 55.67918269 72.7559316 43.72014731 72.76403403 C37.00765777 72.76901695 30.29535918 72.78144377 23.5829258 72.81060028 C17.25874081 72.83784657 10.93480902 72.84610632 4.61057091 72.84011078 C2.29554746 72.84120689 -0.01948488 72.84910541 -2.3344574 72.86450195 C-31.36655325 73.0480412 -31.36655325 73.0480412 -42.74179077 63.2353363 C-50.59996646 55.45935911 -52.89644893 47.31786126 -53.04647827 36.45018005 C-52.99977797 29.40705569 -52.28494776 23.54865073 -48.60897827 17.38768005 C-48.18487671 16.67353943 -47.76077515 15.9593988 -47.32382202 15.22361755 C-42.20438416 7.60863199 -35.06894945 3.24546388 -26.27274776 0.9868468 C-17.61433102 -0.42913623 -8.74889619 -0.02553237 0 0 Z " fill="#FFFFFF" transform="translate(1422.6089782714844,1010.6123199462891)"/>
<path d="M0 0 C-6.58780513 8.51776606 -13.83624306 16.1478948 -21.46484375 23.72558594 C-23.37214332 25.62215939 -25.26850059 27.52920305 -27.1640625 29.4375 C-34.13824487 36.41922533 -41.23892324 42.89322302 -49 49 C-50.02806429 49.86277585 -51.05147905 50.73118304 -52.06640625 51.609375 C-124.40474698 113.64601149 -220.81165145 137.59004757 -360.88525391 144.31567383 C-363.8320275 144.3111288 -366.77837943 144.31767127 -369.72509766 144.33618164 C-420.5833817 144.65023543 -471.37172884 140.66630113 -522.04870605 136.79681396 C-600.07208508 130.6144222 -600.07208508 130.6144222 -678.28173828 128.60888672 C-682.67581595 128.62619232 -687.06935632 128.6156254 -691.46341705 128.59855747 C-764.69824332 128.35844251 -835.4483437 139.97952015 -901 174 C-897.2570853 148.09903029 -873.52671516 121.18760186 -856 103 C-854.85724609 101.7625 -854.85724609 101.7625 -853.69140625 100.5 C-796.12418894 39.92336661 -702.39898369 30.36178151 -623.73144531 28.25317383 C-590.63261129 27.41949698 -557.51544913 28.61585838 -524.4609375 30.2890625 C-523.18303974 30.35313734 -521.90514198 30.41721218 -520.58852005 30.48322868 C-490.50077995 32.00015796 -460.44239446 33.94528974 -430.38219452 35.93001556 C-419.03381057 36.67906317 -407.68514683 37.42370726 -396.3359375 38.16015625 C-394.41963752 38.28454449 -394.41963752 38.28454449 -392.4646244 38.41144562 C-370.67474964 39.81955349 -348.88075228 40.9953742 -327.06483269 41.91296577 C-324.98823612 42.00049586 -322.91172456 42.08985847 -320.83522034 42.17955017 C-231.26771974 46.00790621 -139.49108956 42.95479307 -5.4765625 -0.1015625 C-3 -1 -3 -1 0 0 Z " fill="#FFFFFF" transform="translate(1471,144)"/>
<path d="M0 0 C-1.25888876 3.4373169 -2.68934145 6.21752045 -4.87109375 9.15234375 C-5.43981201 9.92175293 -6.00853027 10.69116211 -6.59448242 11.48388672 C-7.20267822 12.2935791 -7.81087402 13.10327148 -8.4375 13.9375 C-9.06567627 14.78070801 -9.69385254 15.62391602 -10.34106445 16.49267578 C-21.88465383 31.93001173 -33.99809908 46.76192514 -47 61 C-47.85207031 61.94488281 -48.70414063 62.88976562 -49.58203125 63.86328125 C-58.54637195 73.77438839 -67.79531483 83.35287204 -78 92 C-79.01409119 92.8881022 -80.0270079 93.7775464 -81.0390625 94.66796875 C-94.22957615 106.21561715 -108.21531731 116.58292902 -123 126 C-123.57476074 126.36657715 -124.14952148 126.7331543 -124.74169922 127.11083984 C-169.32870331 155.27304787 -218.81348921 171.01330335 -271 177 C-271.97420898 177.11714355 -272.94841797 177.23428711 -273.95214844 177.35498047 C-310.56076845 181.57230352 -348.43162155 179.86988963 -385 176 C-385.78473694 175.9175 -386.56947388 175.835 -387.37799072 175.75 C-435.40780897 170.64762139 -482.76262409 161.41530568 -530.15258789 152.29663086 C-627.85199514 133.26459976 -627.85199514 133.26459976 -727 126.8125 C-727.99133942 126.81310425 -728.98267883 126.8137085 -730.00405884 126.81433105 C-766.84341386 126.87517411 -804.02058043 130.68030823 -838.99707031 142.8527832 C-839.8578418 143.14628662 -840.71861328 143.43979004 -841.60546875 143.7421875 C-842.35981201 144.0088623 -843.11415527 144.27553711 -843.89135742 144.55029297 C-846.27645744 145.05895966 -847.71011074 144.76794079 -850 144 C-831.45266016 109.4439227 -801.71276195 84.93344389 -764.24365234 73.13183594 C-719.80476955 59.97798875 -673.06076978 60.33169975 -627.2109375 63.21484375 C-626.17202614 63.27894062 -625.13311478 63.34303749 -624.06272125 63.40907669 C-600.64231782 64.87031939 -577.31784438 67.13634377 -553.97876358 69.54349899 C-548.44197339 70.11196784 -542.90394542 70.66810176 -537.3659668 71.22485352 C-529.7535067 71.99079794 -522.14125583 72.75871866 -514.52941799 73.53082371 C-465.48973154 78.50434406 -416.42363502 83.25896744 -367.125 84.5625 C-365.95812149 84.59376984 -365.95812149 84.59376984 -364.76766968 84.62567139 C-352.1753456 84.95860715 -339.59681401 85.21389249 -327 85 C-325.85756836 84.98211426 -324.71513672 84.96422852 -323.53808594 84.94580078 C-242.51749039 83.50613521 -160.85710518 71.71542918 -6.2355957 2.53833008 C-2.18573685 0 -2.18573685 0 0 0 Z " fill="#FFFFFF" transform="translate(1406,258)"/>
<path d="M0 0 C61.06602616 17.09021063 122.37252303 32.48960122 185.66967773 38.16577148 C186.65863037 38.26148438 187.64758301 38.35719727 188.66650391 38.45581055 C200.95310951 39.5075749 213.28455407 39.40861414 225.60717773 39.41577148 C227.40955902 39.4172821 227.40955902 39.4172821 229.24835205 39.41882324 C247.91659222 39.40825004 266.17218658 38.81473209 284.66967773 36.16577148 C285.71494629 36.02123535 286.76021484 35.87669922 287.8371582 35.7277832 C331.34159292 29.55970273 372.38720732 15.64388945 411.66967773 -3.83422852 C411.66967773 -0.83422852 411.66967773 -0.83422852 408.99389648 1.98608398 C407.79013811 3.09690824 406.57726023 4.19790212 405.35717773 5.29077148 C404.71852783 5.87262207 404.07987793 6.45447266 403.421875 7.05395508 C398.8760623 11.16442774 394.21282749 15.10563779 389.42749023 18.93530273 C386.94234041 20.94524686 384.51155656 23.00719255 382.09130859 25.09448242 C312.31752493 85.09718396 222.23444116 121.12156674 129.55639648 114.40014648 C58.63965749 108.64235983 -7.45300577 83.35273976 -72.86505127 56.94406128 C-89.22629584 50.34081994 -105.72830268 44.13676707 -122.33032227 38.16577148 C-123.4550293 37.76100586 -124.57973633 37.35624023 -125.73852539 36.93920898 C-172.45313793 20.31148131 -224.03454698 9.55396864 -270.86938477 31.20092773 C-280.07213237 35.71513072 -288.18356661 41.44490119 -296.23266602 47.75952148 C-299.33032227 50.16577148 -299.33032227 50.16577148 -301.33032227 51.16577148 C-298.41321361 28.69968093 -273.99336892 3.65596105 -257.33032227 -9.83422852 C-238.69879511 -23.66475065 -216.39295408 -31.7074948 -193.33032227 -33.83422852 C-191.57655273 -33.99858398 -191.57655273 -33.99858398 -189.78735352 -34.16625977 C-126.01520595 -39.38208427 -60.55420551 -16.95300958 0 0 Z " fill="#FFFFFF" transform="translate(799.330322265625,459.834228515625)"/>
</svg>
